<!-- save as google-icon.svg -->
<svg xmlns="http://www.w3.org/2000/svg" viewBox="0 0 533.5 544.3"><path fill="#4285f4" d="M533.5 278.4c0-17.4-1.6-34.1-4.7-50.2H272v95.1h146.8c-6.3 34-25.4 62.8-54.2 82.2v68h87.6c51.2-47.2 81.3-116.5 81.3-195.1z"></path><path fill="#34a853" d="M272 544.3c73.7 0 135.6-24.4 180.8-66.4l-87.6-68c-24.4 16.4-55.8 26-93.2 26-71.6 0-132.2-48.1-153.9-112.9H27.6v71.1C72.7 480.8 165.7 544.3 272 544.3z"></path><path fill="#fbbc04" d="M118.1 325.1c-9.9-29.7-9.9-61.8 0-91.4V162.6H27.6c-38.7 76.6-38.7 167.8 0 244.4l90.5-81.9z"></path><path fill="#ea4335" d="M272 109.6c39.9 0 75.9 13.7 104.3 40.6l78.2-78.2C401.8 25.8 345.7 0 272 0 165.7 0 72.7 63.5 27.6 162.6l90.5 71.1C139.8 158 200.4 109.6 272 109.6z"></path></svg>
